<svg xmlns="http://www.w3.org/2000/svg" viewBox="0 0 1600 1200" preserveAspectRatio="xMidYMid slice">
  <defs>
    <linearGradient id="sky" x1="0" x2="1" y1="0" y2="1">
      <stop offset="0" stop-color="#234f69"/>
      <stop offset=".48" stop-color="#8a1e55"/>
      <stop offset="1" stop-color="#f2a35b"/>
    </linearGradient>
    <linearGradient id="road" x1="0" x2="1">
      <stop offset="0" stop-color="#f9d8b5" stop-opacity=".82"/>
      <stop offset=".46" stop-color="#ffffff" stop-opacity=".7"/>
      <stop offset="1" stop-color="#91d2d0" stop-opacity=".62"/>
    </linearGradient>
    <filter id="soft" x="-20%" y="-20%" width="140%" height="140%">
      <feGaussianBlur stdDeviation="16"/>
    </filter>
  </defs>
  <rect width="1600" height="1200" fill="url(#sky)"/>
  <g opacity=".28" filter="url(#soft)">
    <circle cx="1320" cy="210" r="210" fill="#fff7d6"/>
    <circle cx="360" cy="940" r="260" fill="#99e7e1"/>
  </g>
  <g fill="none" stroke-linecap="round" stroke-linejoin="round">
    <path d="M-80 880 C220 690 430 720 710 610 C1010 490 1250 260 1690 260" stroke="url(#road)" stroke-width="66" opacity=".82"/>
    <path d="M-70 890 C230 700 430 730 720 620 C1018 507 1260 280 1680 270" stroke="#2b5f73" stroke-width="12" opacity=".4"/>
    <path d="M60 1060 C310 880 500 860 760 780 C1010 702 1180 560 1590 540" stroke="#fff6e9" stroke-width="32" opacity=".52"/>
    <path d="M-110 430 C190 470 330 380 560 310 C850 220 1090 250 1700 120" stroke="#bce9e4" stroke-width="44" opacity=".45"/>
    <path d="M1050 1220 C980 950 900 840 760 700 C640 580 590 470 590 230" stroke="#ffd5ad" stroke-width="42" opacity=".45"/>
    <path d="M250 1220 C360 930 510 820 590 660 C690 460 780 300 910 -60" stroke="#ffffff" stroke-width="28" opacity=".28"/>
  </g>
  <g fill="#ffffff" opacity=".2">
    <rect x="220" y="520" width="170" height="110" rx="8" transform="rotate(-13 305 575)"/>
    <rect x="420" y="420" width="150" height="92" rx="8" transform="rotate(-13 495 466)"/>
    <rect x="980" y="470" width="220" height="140" rx="10" transform="rotate(-18 1090 540)"/>
    <rect x="1220" y="390" width="180" height="110" rx="8" transform="rotate(-18 1310 445)"/>
    <rect x="760" y="900" width="230" height="132" rx="10" transform="rotate(-10 875 966)"/>
    <rect x="1060" y="820" width="180" height="112" rx="8" transform="rotate(-10 1150 876)"/>
  </g>
  <g fill="none" stroke="#ffffff" stroke-width="2" opacity=".18">
    <path d="M160 300h1280M160 390h1280M160 480h1280M160 570h1280M160 660h1280M160 750h1280M160 840h1280"/>
    <path d="M240 160v880M360 160v880M480 160v880M600 160v880M720 160v880M840 160v880M960 160v880M1080 160v880M1200 160v880M1320 160v880"/>
  </g>
  <rect width="1600" height="1200" fill="#160915" opacity=".16"/>
</svg>
